<svg xmlns="http://www.w3.org/2000/svg" viewBox="0 0 32 32" width="32" height="32">
  <rect width="32" height="32" rx="7" fill="#D96B2B"/>
  <path d="M16 6c0 0-1.5 3-3.5 5.5C10.5 14 10 16 10 18c0 3.3 2.7 6 6 6s6-2.7 6-6c0-1.5-.5-3-1.5-4.5C19 12 19 10 20 8c0 0-1 1.5-2 2.5C17 7.5 16 6 16 6z" fill="white" opacity="0.95"/>
  <path d="M16 17c0 0-.8 1.5-.8 2.5 0 .9.8 1.5 1.5 1.5.8 0 1.3-.6 1.3-1.5 0-.7-.3-1.3-.3-1.3S17.2 19 16.5 19c-.4 0-.5-.3-.5-.5 0-.5.5-1.5.5-1.5z" fill="#D96B2B" opacity="0.6"/>
</svg>
